<mxfile host="app.diagrams.net" modified="2023-03-27T14:38:47.301Z" agent="Mozilla/5.0 (X11; Ubuntu; Linux x86_64; rv:109.0) Gecko/20100101 Firefox/111.0" etag="8-uquch0yAo_6fcFYJyp" version="21.1.1" type="device">
  <diagram name="Page-1" id="H6X79qpipquMsz1ulPpb">
    <mxGraphModel dx="1292" dy="496" grid="1" gridSize="10" guides="1" tooltips="1" connect="1" arrows="1" fold="1" page="1" pageScale="1" pageWidth="827" pageHeight="1169" math="0" shadow="0">
      <root>
        <mxCell id="0" />
        <mxCell id="1" parent="0" />
        <mxCell id="yT2QsLqup_eKdRdo7RIF-50" value="Technopoïèse" style="swimlane;whiteSpace=wrap;html=1;" parent="1" vertex="1">
          <mxGeometry x="259.5" y="250" width="395.5" height="530" as="geometry" />
        </mxCell>
        <mxCell id="yT2QsLqup_eKdRdo7RIF-53" value="Développement traditionnel" style="swimlane;whiteSpace=wrap;html=1;" parent="yT2QsLqup_eKdRdo7RIF-50" vertex="1">
          <mxGeometry x="5.5" y="30" width="384.5" height="95" as="geometry" />
        </mxCell>
        <mxCell id="lAiLHKj1GxSyFN-BF3O8-1" value="C&lt;sub&gt;0&lt;/sub&gt;" style="text;html=1;strokeColor=none;fillColor=none;align=center;verticalAlign=middle;whiteSpace=wrap;rounded=0;" parent="yT2QsLqup_eKdRdo7RIF-53" vertex="1">
          <mxGeometry x="132" y="47" width="27" height="30" as="geometry" />
        </mxCell>
        <mxCell id="lAiLHKj1GxSyFN-BF3O8-2" value="C&lt;sub&gt;1&lt;/sub&gt;" style="text;html=1;strokeColor=none;fillColor=none;align=center;verticalAlign=middle;whiteSpace=wrap;rounded=0;" parent="yT2QsLqup_eKdRdo7RIF-53" vertex="1">
          <mxGeometry x="213" y="47" width="29" height="30" as="geometry" />
        </mxCell>
        <mxCell id="lAiLHKj1GxSyFN-BF3O8-3" value="" style="endArrow=classic;html=1;rounded=0;exitX=1;exitY=0.5;exitDx=0;exitDy=0;" parent="yT2QsLqup_eKdRdo7RIF-53" source="lAiLHKj1GxSyFN-BF3O8-1" target="lAiLHKj1GxSyFN-BF3O8-2" edge="1">
          <mxGeometry width="50" height="50" relative="1" as="geometry">
            <mxPoint x="259" y="37" as="sourcePoint" />
            <mxPoint x="309" y="-13" as="targetPoint" />
          </mxGeometry>
        </mxCell>
        <mxCell id="lAiLHKj1GxSyFN-BF3O8-4" value="H" style="edgeLabel;html=1;align=center;verticalAlign=middle;resizable=0;points=[];" parent="lAiLHKj1GxSyFN-BF3O8-3" vertex="1" connectable="0">
          <mxGeometry x="-0.2248" y="1" relative="1" as="geometry">
            <mxPoint x="1" y="8" as="offset" />
          </mxGeometry>
        </mxCell>
        <mxCell id="lAiLHKj1GxSyFN-BF3O8-5" value="Ré-ingénierie manuelle" style="text;html=1;strokeColor=none;fillColor=none;align=center;verticalAlign=middle;whiteSpace=wrap;rounded=0;" parent="yT2QsLqup_eKdRdo7RIF-53" vertex="1">
          <mxGeometry x="143" y="30" width="83" height="30" as="geometry" />
        </mxCell>
        <mxCell id="yT2QsLqup_eKdRdo7RIF-45" value="&lt;font style=&quot;font-size: 6px;&quot;&gt;Intervention humaine développeur pour obtenir un code modifié&lt;/font&gt;" style="text;html=1;strokeColor=none;fillColor=none;align=center;verticalAlign=middle;whiteSpace=wrap;rounded=0;" parent="yT2QsLqup_eKdRdo7RIF-53" vertex="1">
          <mxGeometry x="95.75" y="77" width="177.5" height="13" as="geometry" />
        </mxCell>
        <mxCell id="yT2QsLqup_eKdRdo7RIF-14" value="H&lt;sub&gt;1&lt;/sub&gt;" style="text;html=1;strokeColor=none;fillColor=none;align=center;verticalAlign=middle;whiteSpace=wrap;rounded=0;" parent="yT2QsLqup_eKdRdo7RIF-50" vertex="1">
          <mxGeometry x="199" y="284" width="60" height="30" as="geometry" />
        </mxCell>
        <mxCell id="yT2QsLqup_eKdRdo7RIF-15" value="H&lt;sub&gt;0&lt;/sub&gt;" style="text;html=1;strokeColor=none;fillColor=none;align=center;verticalAlign=middle;whiteSpace=wrap;rounded=0;" parent="yT2QsLqup_eKdRdo7RIF-50" vertex="1">
          <mxGeometry x="35" y="286" width="60" height="30" as="geometry" />
        </mxCell>
        <mxCell id="yT2QsLqup_eKdRdo7RIF-17" value="μC&lt;sub&gt;0&lt;/sub&gt;" style="text;html=1;strokeColor=none;fillColor=none;align=center;verticalAlign=middle;whiteSpace=wrap;rounded=0;" parent="yT2QsLqup_eKdRdo7RIF-50" vertex="1">
          <mxGeometry x="5" y="302" width="30" height="20" as="geometry" />
        </mxCell>
        <mxCell id="yT2QsLqup_eKdRdo7RIF-19" value="C&lt;sub&gt;1&lt;/sub&gt;" style="text;html=1;strokeColor=none;fillColor=none;align=center;verticalAlign=middle;whiteSpace=wrap;rounded=0;" parent="yT2QsLqup_eKdRdo7RIF-50" vertex="1">
          <mxGeometry x="301" y="292" width="20" height="30" as="geometry" />
        </mxCell>
        <mxCell id="yT2QsLqup_eKdRdo7RIF-21" value="μC&lt;sub&gt;1&lt;/sub&gt;" style="text;html=1;strokeColor=none;fillColor=none;align=center;verticalAlign=middle;whiteSpace=wrap;rounded=0;" parent="yT2QsLqup_eKdRdo7RIF-50" vertex="1">
          <mxGeometry x="60" y="246" width="30" height="21" as="geometry" />
        </mxCell>
        <mxCell id="yT2QsLqup_eKdRdo7RIF-16" style="edgeStyle=orthogonalEdgeStyle;rounded=0;orthogonalLoop=1;jettySize=auto;html=1;" parent="yT2QsLqup_eKdRdo7RIF-50" source="yT2QsLqup_eKdRdo7RIF-17" target="yT2QsLqup_eKdRdo7RIF-21" edge="1">
          <mxGeometry relative="1" as="geometry" />
        </mxCell>
        <mxCell id="yT2QsLqup_eKdRdo7RIF-22" style="edgeStyle=orthogonalEdgeStyle;rounded=0;orthogonalLoop=1;jettySize=auto;html=1;entryX=0;entryY=0.5;entryDx=0;entryDy=0;" parent="yT2QsLqup_eKdRdo7RIF-50" source="yT2QsLqup_eKdRdo7RIF-23" target="yT2QsLqup_eKdRdo7RIF-19" edge="1">
          <mxGeometry relative="1" as="geometry">
            <Array as="points">
              <mxPoint x="215" y="307" />
            </Array>
          </mxGeometry>
        </mxCell>
        <mxCell id="yT2QsLqup_eKdRdo7RIF-23" value="C&lt;sub&gt;1&lt;/sub&gt;" style="text;html=1;strokeColor=none;fillColor=none;align=center;verticalAlign=middle;whiteSpace=wrap;rounded=0;" parent="yT2QsLqup_eKdRdo7RIF-50" vertex="1">
          <mxGeometry x="205" y="247" width="20" height="20" as="geometry" />
        </mxCell>
        <mxCell id="yT2QsLqup_eKdRdo7RIF-20" style="edgeStyle=orthogonalEdgeStyle;rounded=0;orthogonalLoop=1;jettySize=auto;html=1;curved=1;" parent="yT2QsLqup_eKdRdo7RIF-50" source="yT2QsLqup_eKdRdo7RIF-21" target="yT2QsLqup_eKdRdo7RIF-23" edge="1">
          <mxGeometry relative="1" as="geometry">
            <Array as="points">
              <mxPoint x="75" y="212" />
              <mxPoint x="215" y="212" />
            </Array>
          </mxGeometry>
        </mxCell>
        <mxCell id="yT2QsLqup_eKdRdo7RIF-24" value="M&lt;sup&gt;d&lt;/sup&gt;&lt;font style=&quot;font-size: 9px;&quot;&gt;&lt;font style=&quot;font-size: 8px;&quot;&gt;&lt;font style=&quot;font-size: 7px;&quot;&gt;&lt;font style=&quot;font-size: 6px;&quot;&gt;0&lt;/font&gt;&lt;/font&gt;&lt;/font&gt;&lt;/font&gt;" style="text;html=1;strokeColor=none;fillColor=none;align=center;verticalAlign=middle;whiteSpace=wrap;rounded=0;" parent="yT2QsLqup_eKdRdo7RIF-50" vertex="1">
          <mxGeometry x="118" y="189" width="60" height="30" as="geometry" />
        </mxCell>
        <mxCell id="yT2QsLqup_eKdRdo7RIF-26" value="M&lt;sup&gt;i&lt;/sup&gt;&lt;font style=&quot;font-size: 9px;&quot;&gt;&lt;font style=&quot;font-size: 8px;&quot;&gt;&lt;font style=&quot;font-size: 7px;&quot;&gt;&lt;font style=&quot;font-size: 6px;&quot;&gt;1&lt;/font&gt;&lt;/font&gt;&lt;/font&gt;&lt;/font&gt;" style="text;html=1;strokeColor=none;fillColor=none;align=center;verticalAlign=middle;whiteSpace=wrap;rounded=0;" parent="yT2QsLqup_eKdRdo7RIF-50" vertex="1">
          <mxGeometry x="299" y="279" width="60" height="30" as="geometry" />
        </mxCell>
        <mxCell id="yT2QsLqup_eKdRdo7RIF-30" value="Générateur de code" style="text;html=1;strokeColor=none;fillColor=none;align=center;verticalAlign=middle;whiteSpace=wrap;rounded=0;" parent="yT2QsLqup_eKdRdo7RIF-50" vertex="1">
          <mxGeometry x="101" y="152" width="113.5" height="30" as="geometry" />
        </mxCell>
        <mxCell id="yT2QsLqup_eKdRdo7RIF-31" value="μ&lt;sub&gt;C1&lt;/sub&gt;" style="text;html=1;strokeColor=none;fillColor=none;align=center;verticalAlign=middle;whiteSpace=wrap;rounded=0;" parent="yT2QsLqup_eKdRdo7RIF-50" vertex="1">
          <mxGeometry x="341" y="292" width="30" height="30" as="geometry" />
        </mxCell>
        <mxCell id="yT2QsLqup_eKdRdo7RIF-34" value="Boucler jusqu&#39;à aucun changement sur C&lt;sub&gt;1&lt;/sub&gt;, μ&lt;sub&gt;C1&lt;/sub&gt;" style="text;html=1;strokeColor=none;fillColor=none;align=center;verticalAlign=middle;whiteSpace=wrap;rounded=0;fontSize=4;" parent="yT2QsLqup_eKdRdo7RIF-50" vertex="1">
          <mxGeometry x="299" y="274" width="58" height="8" as="geometry" />
        </mxCell>
        <mxCell id="yT2QsLqup_eKdRdo7RIF-35" value="&lt;div&gt;Utiliser la machine pour créer nos besoins technologiques&lt;/div&gt;" style="text;html=1;strokeColor=none;fillColor=none;align=center;verticalAlign=middle;whiteSpace=wrap;rounded=0;fontSize=5;" parent="yT2QsLqup_eKdRdo7RIF-50" vertex="1">
          <mxGeometry x="101" y="165" width="110" height="30" as="geometry" />
        </mxCell>
        <mxCell id="yT2QsLqup_eKdRdo7RIF-36" value="" style="endArrow=classic;html=1;exitX=1;exitY=0;exitDx=0;exitDy=0;dashed=1;dashPattern=12 12;entryX=0;entryY=1;entryDx=0;entryDy=0;curved=1;" parent="yT2QsLqup_eKdRdo7RIF-50" source="yT2QsLqup_eKdRdo7RIF-17" target="yT2QsLqup_eKdRdo7RIF-21" edge="1">
          <mxGeometry width="50" height="50" relative="1" as="geometry">
            <mxPoint x="5" y="282" as="sourcePoint" />
            <mxPoint x="85" y="222" as="targetPoint" />
            <Array as="points">
              <mxPoint x="55" y="292" />
            </Array>
          </mxGeometry>
        </mxCell>
        <mxCell id="yT2QsLqup_eKdRdo7RIF-37" value="Ajouter ou modifier les caractéristiques d&#39;une fonctionnalité logicielle sur sa plateforme" style="text;html=1;strokeColor=none;fillColor=none;align=center;verticalAlign=middle;whiteSpace=wrap;rounded=0;fontSize=5;" parent="yT2QsLqup_eKdRdo7RIF-50" vertex="1">
          <mxGeometry x="4" y="264" width="50" height="30" as="geometry" />
        </mxCell>
        <mxCell id="yT2QsLqup_eKdRdo7RIF-18" style="edgeStyle=orthogonalEdgeStyle;rounded=0;orthogonalLoop=1;jettySize=auto;html=1;" parent="yT2QsLqup_eKdRdo7RIF-50" source="yT2QsLqup_eKdRdo7RIF-19" target="yT2QsLqup_eKdRdo7RIF-31" edge="1">
          <mxGeometry relative="1" as="geometry">
            <Array as="points">
              <mxPoint x="331" y="307" />
              <mxPoint x="331" y="307" />
            </Array>
          </mxGeometry>
        </mxCell>
        <mxCell id="yT2QsLqup_eKdRdo7RIF-38" value="" style="endArrow=classic;html=1;entryX=0;entryY=0.75;entryDx=0;entryDy=0;dashed=1;dashPattern=12 12;exitX=1;exitY=1;exitDx=0;exitDy=0;curved=1;" parent="yT2QsLqup_eKdRdo7RIF-50" source="yT2QsLqup_eKdRdo7RIF-23" target="yT2QsLqup_eKdRdo7RIF-26" edge="1">
          <mxGeometry width="50" height="50" relative="1" as="geometry">
            <mxPoint x="205" y="222" as="sourcePoint" />
            <mxPoint x="195" y="292" as="targetPoint" />
            <Array as="points">
              <mxPoint x="255" y="302" />
            </Array>
          </mxGeometry>
        </mxCell>
        <mxCell id="yT2QsLqup_eKdRdo7RIF-40" value="Allopoïèse" style="swimlane;whiteSpace=wrap;html=1;" parent="yT2QsLqup_eKdRdo7RIF-50" vertex="1">
          <mxGeometry x="4.5" y="133" width="385.5" height="190" as="geometry" />
        </mxCell>
        <mxCell id="yT2QsLqup_eKdRdo7RIF-29" value="&lt;font style=&quot;font-size: 6px;&quot;&gt;Nouvelles métadonnées temporaires&lt;/font&gt;" style="text;html=1;strokeColor=none;fillColor=none;align=center;verticalAlign=middle;whiteSpace=wrap;rounded=0;fontSize=7;" parent="yT2QsLqup_eKdRdo7RIF-40" vertex="1">
          <mxGeometry x="73.5" y="96" width="60" height="30" as="geometry" />
        </mxCell>
        <mxCell id="yT2QsLqup_eKdRdo7RIF-27" value="&lt;font style=&quot;font-size: 6px;&quot;&gt;Nouveaux codes temporaires&lt;/font&gt;" style="text;html=1;strokeColor=none;fillColor=none;align=center;verticalAlign=middle;whiteSpace=wrap;rounded=0;fontSize=6;" parent="yT2QsLqup_eKdRdo7RIF-40" vertex="1">
          <mxGeometry x="164.25" y="100" width="43" height="22" as="geometry" />
        </mxCell>
        <mxCell id="yT2QsLqup_eKdRdo7RIF-39" value="&lt;p style=&quot;line-height: 30%;&quot;&gt;&lt;font style=&quot;font-size: 5px;&quot;&gt;Validation du fonctionnement&lt;br&gt;&lt;/font&gt;&lt;/p&gt;" style="text;html=1;strokeColor=none;fillColor=none;align=center;verticalAlign=middle;whiteSpace=wrap;rounded=0;" parent="yT2QsLqup_eKdRdo7RIF-40" vertex="1">
          <mxGeometry x="214" y="117" width="60" height="30" as="geometry" />
        </mxCell>
        <mxCell id="yT2QsLqup_eKdRdo7RIF-33" value="Amélioration continue" style="text;html=1;strokeColor=none;fillColor=none;align=center;verticalAlign=middle;whiteSpace=wrap;rounded=0;" parent="yT2QsLqup_eKdRdo7RIF-40" vertex="1">
          <mxGeometry x="264" y="117" width="121.5" height="14" as="geometry" />
        </mxCell>
        <mxCell id="yT2QsLqup_eKdRdo7RIF-32" value="" style="endArrow=diamond;dashed=1;html=1;rounded=0;edgeStyle=orthogonalEdgeStyle;curved=1;startArrow=classic;startFill=1;endFill=1;" parent="yT2QsLqup_eKdRdo7RIF-40" edge="1">
          <mxGeometry width="50" height="50" relative="1" as="geometry">
            <mxPoint x="276" y="174" as="sourcePoint" />
            <mxPoint x="376" y="174" as="targetPoint" />
            <Array as="points">
              <mxPoint x="276" y="134" />
              <mxPoint x="376" y="134" />
            </Array>
          </mxGeometry>
        </mxCell>
        <mxCell id="yT2QsLqup_eKdRdo7RIF-44" value="" style="endArrow=none;html=1;rounded=0;" parent="yT2QsLqup_eKdRdo7RIF-40" edge="1">
          <mxGeometry width="50" height="50" relative="1" as="geometry">
            <mxPoint x="66.5" y="115" as="sourcePoint" />
            <mxPoint x="76.5" y="115" as="targetPoint" />
          </mxGeometry>
        </mxCell>
        <mxCell id="yT2QsLqup_eKdRdo7RIF-48" value="&lt;font style=&quot;font-size: 5px;&quot;&gt;Intervention humaine fonctionnelle&lt;/font&gt;" style="text;html=1;strokeColor=none;fillColor=none;align=center;verticalAlign=middle;whiteSpace=wrap;rounded=0;" parent="yT2QsLqup_eKdRdo7RIF-40" vertex="1">
          <mxGeometry x="70.5" y="164" width="82" height="15" as="geometry" />
        </mxCell>
        <mxCell id="yT2QsLqup_eKdRdo7RIF-49" value="&lt;font style=&quot;font-size: 5px;&quot;&gt;Intervention humaine développeur&lt;/font&gt;" style="text;html=1;strokeColor=none;fillColor=none;align=center;verticalAlign=middle;whiteSpace=wrap;rounded=0;" parent="yT2QsLqup_eKdRdo7RIF-40" vertex="1">
          <mxGeometry x="129" y="156" width="82" height="15" as="geometry" />
        </mxCell>
        <mxCell id="yT2QsLqup_eKdRdo7RIF-43" value="" style="endArrow=none;html=1;rounded=0;" parent="yT2QsLqup_eKdRdo7RIF-50" edge="1">
          <mxGeometry width="50" height="50" relative="1" as="geometry">
            <mxPoint x="209.5" y="249" as="sourcePoint" />
            <mxPoint x="219.5" y="249" as="targetPoint" />
          </mxGeometry>
        </mxCell>
        <mxCell id="qXLcunqzcu00ps4WEuLg-1" value="H&lt;sub&gt;1&lt;/sub&gt;" style="text;html=1;strokeColor=none;fillColor=none;align=center;verticalAlign=middle;whiteSpace=wrap;rounded=0;" parent="yT2QsLqup_eKdRdo7RIF-50" vertex="1">
          <mxGeometry x="200.5" y="482" width="60" height="30" as="geometry" />
        </mxCell>
        <mxCell id="qXLcunqzcu00ps4WEuLg-2" value="H&lt;sub&gt;0&lt;/sub&gt;" style="text;html=1;strokeColor=none;fillColor=none;align=center;verticalAlign=middle;whiteSpace=wrap;rounded=0;" parent="yT2QsLqup_eKdRdo7RIF-50" vertex="1">
          <mxGeometry x="40.5" y="484" width="60" height="30" as="geometry" />
        </mxCell>
        <mxCell id="qXLcunqzcu00ps4WEuLg-3" value="μ&lt;sub&gt;&lt;/sub&gt;M&lt;sub&gt;0&lt;/sub&gt;" style="text;html=1;strokeColor=none;fillColor=none;align=center;verticalAlign=middle;whiteSpace=wrap;rounded=0;" parent="yT2QsLqup_eKdRdo7RIF-50" vertex="1">
          <mxGeometry x="10.5" y="500" width="30" height="20" as="geometry" />
        </mxCell>
        <mxCell id="qXLcunqzcu00ps4WEuLg-4" value="M&lt;sub&gt;1&lt;/sub&gt;" style="text;html=1;strokeColor=none;fillColor=none;align=center;verticalAlign=middle;whiteSpace=wrap;rounded=0;" parent="yT2QsLqup_eKdRdo7RIF-50" vertex="1">
          <mxGeometry x="306.5" y="490" width="20" height="30" as="geometry" />
        </mxCell>
        <mxCell id="qXLcunqzcu00ps4WEuLg-5" value="μ&lt;sub&gt;&lt;/sub&gt;M&lt;sub&gt;1&lt;/sub&gt;" style="text;html=1;strokeColor=none;fillColor=none;align=center;verticalAlign=middle;whiteSpace=wrap;rounded=0;" parent="yT2QsLqup_eKdRdo7RIF-50" vertex="1">
          <mxGeometry x="65.5" y="444" width="30" height="21" as="geometry" />
        </mxCell>
        <mxCell id="qXLcunqzcu00ps4WEuLg-8" style="edgeStyle=orthogonalEdgeStyle;rounded=0;orthogonalLoop=1;jettySize=auto;html=1;" parent="yT2QsLqup_eKdRdo7RIF-50" source="qXLcunqzcu00ps4WEuLg-3" target="qXLcunqzcu00ps4WEuLg-5" edge="1">
          <mxGeometry relative="1" as="geometry" />
        </mxCell>
        <mxCell id="qXLcunqzcu00ps4WEuLg-12" style="edgeStyle=orthogonalEdgeStyle;rounded=0;orthogonalLoop=1;jettySize=auto;html=1;entryX=0;entryY=0.5;entryDx=0;entryDy=0;" parent="yT2QsLqup_eKdRdo7RIF-50" source="qXLcunqzcu00ps4WEuLg-6" target="qXLcunqzcu00ps4WEuLg-4" edge="1">
          <mxGeometry relative="1" as="geometry">
            <Array as="points">
              <mxPoint x="220.5" y="505" />
            </Array>
          </mxGeometry>
        </mxCell>
        <mxCell id="qXLcunqzcu00ps4WEuLg-6" value="M&lt;sub&gt;1&lt;/sub&gt;" style="text;html=1;strokeColor=none;fillColor=none;align=center;verticalAlign=middle;whiteSpace=wrap;rounded=0;" parent="yT2QsLqup_eKdRdo7RIF-50" vertex="1">
          <mxGeometry x="210.5" y="445" width="20" height="20" as="geometry" />
        </mxCell>
        <mxCell id="qXLcunqzcu00ps4WEuLg-9" style="edgeStyle=orthogonalEdgeStyle;rounded=0;orthogonalLoop=1;jettySize=auto;html=1;curved=1;" parent="yT2QsLqup_eKdRdo7RIF-50" source="qXLcunqzcu00ps4WEuLg-5" target="qXLcunqzcu00ps4WEuLg-6" edge="1">
          <mxGeometry relative="1" as="geometry">
            <Array as="points">
              <mxPoint x="80.5" y="410" />
              <mxPoint x="220.5" y="410" />
            </Array>
          </mxGeometry>
        </mxCell>
        <mxCell id="qXLcunqzcu00ps4WEuLg-7" value="M&lt;sup&gt;d&lt;/sup&gt;&lt;font style=&quot;font-size: 9px;&quot;&gt;&lt;font style=&quot;font-size: 8px;&quot;&gt;&lt;font style=&quot;font-size: 7px;&quot;&gt;&lt;font style=&quot;font-size: 6px;&quot;&gt;0&lt;/font&gt;&lt;/font&gt;&lt;/font&gt;&lt;/font&gt;" style="text;html=1;strokeColor=none;fillColor=none;align=center;verticalAlign=middle;whiteSpace=wrap;rounded=0;" parent="yT2QsLqup_eKdRdo7RIF-50" vertex="1">
          <mxGeometry x="123.5" y="387" width="60" height="30" as="geometry" />
        </mxCell>
        <mxCell id="lAiLHKj1GxSyFN-BF3O8-6" value="" style="endArrow=none;html=1;rounded=0;" parent="yT2QsLqup_eKdRdo7RIF-50" edge="1">
          <mxGeometry width="50" height="50" relative="1" as="geometry">
            <mxPoint x="212.5" y="447" as="sourcePoint" />
            <mxPoint x="222.5" y="447" as="targetPoint" />
          </mxGeometry>
        </mxCell>
        <mxCell id="lAiLHKj1GxSyFN-BF3O8-9" value="M&lt;sup&gt;i&lt;/sup&gt;&lt;font style=&quot;font-size: 9px;&quot;&gt;&lt;font style=&quot;font-size: 8px;&quot;&gt;&lt;font style=&quot;font-size: 7px;&quot;&gt;&lt;font style=&quot;font-size: 6px;&quot;&gt;1&lt;/font&gt;&lt;/font&gt;&lt;/font&gt;&lt;/font&gt;" style="text;html=1;strokeColor=none;fillColor=none;align=center;verticalAlign=middle;whiteSpace=wrap;rounded=0;" parent="yT2QsLqup_eKdRdo7RIF-50" vertex="1">
          <mxGeometry x="304.5" y="477" width="60" height="30" as="geometry" />
        </mxCell>
        <mxCell id="lAiLHKj1GxSyFN-BF3O8-10" value="Codes incomplets" style="text;html=1;strokeColor=none;fillColor=none;align=center;verticalAlign=middle;whiteSpace=wrap;rounded=0;fontSize=6;" parent="yT2QsLqup_eKdRdo7RIF-50" vertex="1">
          <mxGeometry x="178.5" y="426" width="43" height="22" as="geometry" />
        </mxCell>
        <mxCell id="lAiLHKj1GxSyFN-BF3O8-14" value="" style="endArrow=none;html=1;rounded=0;" parent="yT2QsLqup_eKdRdo7RIF-50" edge="1">
          <mxGeometry width="50" height="50" relative="1" as="geometry">
            <mxPoint x="76.5" y="447" as="sourcePoint" />
            <mxPoint x="86.5" y="447" as="targetPoint" />
          </mxGeometry>
        </mxCell>
        <mxCell id="lAiLHKj1GxSyFN-BF3O8-15" value="&lt;div style=&quot;font-size: 6px;&quot;&gt;&lt;font style=&quot;font-size: 6px;&quot;&gt;Métadonnées&lt;/font&gt;&lt;/div&gt;&lt;div style=&quot;font-size: 6px;&quot;&gt;&lt;font style=&quot;font-size: 6px;&quot;&gt;incomplètes&lt;br style=&quot;font-size: 7px;&quot;&gt;&lt;/font&gt;&lt;/div&gt;" style="text;html=1;strokeColor=none;fillColor=none;align=center;verticalAlign=middle;whiteSpace=wrap;rounded=0;fontSize=7;" parent="yT2QsLqup_eKdRdo7RIF-50" vertex="1">
          <mxGeometry x="73" y="424" width="60" height="30" as="geometry" />
        </mxCell>
        <mxCell id="lAiLHKj1GxSyFN-BF3O8-16" value="Auto-ingénierie" style="text;html=1;strokeColor=none;fillColor=none;align=center;verticalAlign=middle;whiteSpace=wrap;rounded=0;" parent="yT2QsLqup_eKdRdo7RIF-50" vertex="1">
          <mxGeometry x="106.5" y="350" width="94" height="30" as="geometry" />
        </mxCell>
        <mxCell id="lAiLHKj1GxSyFN-BF3O8-17" value="μ&lt;sub&gt;M1&lt;/sub&gt;" style="text;html=1;strokeColor=none;fillColor=none;align=center;verticalAlign=middle;whiteSpace=wrap;rounded=0;" parent="yT2QsLqup_eKdRdo7RIF-50" vertex="1">
          <mxGeometry x="346.5" y="490" width="30" height="30" as="geometry" />
        </mxCell>
        <mxCell id="lAiLHKj1GxSyFN-BF3O8-21" value="" style="endArrow=diamond;dashed=1;html=1;rounded=0;edgeStyle=orthogonalEdgeStyle;curved=1;startArrow=classic;startFill=1;endFill=1;" parent="yT2QsLqup_eKdRdo7RIF-50" edge="1">
          <mxGeometry width="50" height="50" relative="1" as="geometry">
            <mxPoint x="284.5" y="505" as="sourcePoint" />
            <mxPoint x="384.5" y="505" as="targetPoint" />
            <Array as="points">
              <mxPoint x="284.5" y="465" />
              <mxPoint x="384.5" y="465" />
            </Array>
          </mxGeometry>
        </mxCell>
        <mxCell id="lAiLHKj1GxSyFN-BF3O8-22" value="&lt;font style=&quot;font-size: 11px;&quot;&gt;&lt;font style=&quot;font-size: 10px;&quot;&gt;Auto-amélioration&lt;/font&gt;&lt;/font&gt;" style="text;html=1;strokeColor=none;fillColor=none;align=center;verticalAlign=middle;whiteSpace=wrap;rounded=0;" parent="yT2QsLqup_eKdRdo7RIF-50" vertex="1">
          <mxGeometry x="290.5" y="451" width="86" height="14" as="geometry" />
        </mxCell>
        <mxCell id="lAiLHKj1GxSyFN-BF3O8-23" value="Boucler jusqu&#39;à aucun changement sur M&lt;sub&gt;1&lt;/sub&gt; et μ&lt;sub&gt;M1&lt;/sub&gt;" style="text;html=1;strokeColor=none;fillColor=none;align=center;verticalAlign=middle;whiteSpace=wrap;rounded=0;fontSize=4;" parent="yT2QsLqup_eKdRdo7RIF-50" vertex="1">
          <mxGeometry x="304.5" y="472" width="58" height="8" as="geometry" />
        </mxCell>
        <mxCell id="lAiLHKj1GxSyFN-BF3O8-27" value="&lt;div&gt;Appliquer de l&#39;ingénierie sur la Machine&lt;/div&gt;&lt;div&gt;Code = Machine&lt;/div&gt;" style="text;html=1;strokeColor=none;fillColor=none;align=center;verticalAlign=middle;whiteSpace=wrap;rounded=0;fontSize=5;" parent="yT2QsLqup_eKdRdo7RIF-50" vertex="1">
          <mxGeometry x="96.5" y="363" width="110" height="30" as="geometry" />
        </mxCell>
        <mxCell id="lAiLHKj1GxSyFN-BF3O8-28" value="" style="endArrow=classic;html=1;exitX=1;exitY=0;exitDx=0;exitDy=0;dashed=1;dashPattern=12 12;entryX=0;entryY=1;entryDx=0;entryDy=0;curved=1;" parent="yT2QsLqup_eKdRdo7RIF-50" source="qXLcunqzcu00ps4WEuLg-3" target="qXLcunqzcu00ps4WEuLg-5" edge="1">
          <mxGeometry width="50" height="50" relative="1" as="geometry">
            <mxPoint x="10.5" y="480" as="sourcePoint" />
            <mxPoint x="90.5" y="420" as="targetPoint" />
            <Array as="points">
              <mxPoint x="60.5" y="490" />
            </Array>
          </mxGeometry>
        </mxCell>
        <mxCell id="lAiLHKj1GxSyFN-BF3O8-29" value="Automatiser le besoin d&#39;apporter des changements sur un comportement logiciel" style="text;html=1;strokeColor=none;fillColor=none;align=center;verticalAlign=middle;whiteSpace=wrap;rounded=0;fontSize=5;" parent="yT2QsLqup_eKdRdo7RIF-50" vertex="1">
          <mxGeometry x="7.5" y="462" width="50" height="30" as="geometry" />
        </mxCell>
        <mxCell id="lAiLHKj1GxSyFN-BF3O8-19" style="edgeStyle=orthogonalEdgeStyle;rounded=0;orthogonalLoop=1;jettySize=auto;html=1;" parent="yT2QsLqup_eKdRdo7RIF-50" source="qXLcunqzcu00ps4WEuLg-4" target="lAiLHKj1GxSyFN-BF3O8-17" edge="1">
          <mxGeometry relative="1" as="geometry">
            <Array as="points">
              <mxPoint x="336.5" y="505" />
              <mxPoint x="336.5" y="505" />
            </Array>
          </mxGeometry>
        </mxCell>
        <mxCell id="lAiLHKj1GxSyFN-BF3O8-32" value="" style="endArrow=classic;html=1;entryX=0;entryY=0.75;entryDx=0;entryDy=0;dashed=1;dashPattern=12 12;exitX=1;exitY=1;exitDx=0;exitDy=0;curved=1;" parent="yT2QsLqup_eKdRdo7RIF-50" source="qXLcunqzcu00ps4WEuLg-6" target="lAiLHKj1GxSyFN-BF3O8-9" edge="1">
          <mxGeometry width="50" height="50" relative="1" as="geometry">
            <mxPoint x="210.5" y="420" as="sourcePoint" />
            <mxPoint x="200.5" y="490" as="targetPoint" />
            <Array as="points">
              <mxPoint x="260.5" y="500" />
            </Array>
          </mxGeometry>
        </mxCell>
        <mxCell id="lAiLHKj1GxSyFN-BF3O8-33" value="&lt;div style=&quot;font-size: 5px;&quot;&gt;&lt;font style=&quot;font-size: 5px;&quot;&gt;Améliorer/ajouter/corriger une technique d&#39;ingénierie&lt;br&gt;&lt;/font&gt;&lt;/div&gt;" style="text;html=1;strokeColor=none;fillColor=none;align=center;verticalAlign=middle;whiteSpace=wrap;rounded=0;" parent="yT2QsLqup_eKdRdo7RIF-50" vertex="1">
          <mxGeometry x="229.5" y="452" width="60" height="30" as="geometry" />
        </mxCell>
        <mxCell id="yT2QsLqup_eKdRdo7RIF-11" value="Autopoïèse" style="swimlane;whiteSpace=wrap;html=1;" parent="yT2QsLqup_eKdRdo7RIF-50" vertex="1">
          <mxGeometry x="5" y="330" width="385.5" height="190" as="geometry" />
        </mxCell>
        <mxCell id="yT2QsLqup_eKdRdo7RIF-46" value="&lt;font style=&quot;font-size: 5px;&quot;&gt;Intervention humaine fonctionnelle&lt;/font&gt;" style="text;html=1;strokeColor=none;fillColor=none;align=center;verticalAlign=middle;whiteSpace=wrap;rounded=0;" parent="yT2QsLqup_eKdRdo7RIF-11" vertex="1">
          <mxGeometry x="74" y="167" width="82" height="15" as="geometry" />
        </mxCell>
        <mxCell id="yT2QsLqup_eKdRdo7RIF-47" value="&lt;font style=&quot;font-size: 5px;&quot;&gt;Intervention humaine développeur&lt;br&gt;&lt;/font&gt;" style="text;html=1;strokeColor=none;fillColor=none;align=center;verticalAlign=middle;whiteSpace=wrap;rounded=0;" parent="yT2QsLqup_eKdRdo7RIF-11" vertex="1">
          <mxGeometry x="134.5" y="157" width="82" height="15" as="geometry" />
        </mxCell>
      </root>
    </mxGraphModel>
  </diagram>
</mxfile>
